<?xml version="1.0" encoding="utf-8"?>
<!-- Generator: Adobe Illustrator 22.1.0, SVG Export Plug-In . SVG Version: 6.00 Build 0)  -->
<svg version="1.1" id="Слой_1" xmlns="http://www.w3.org/2000/svg" xmlns:xlink="http://www.w3.org/1999/xlink" x="0px" y="0px"
	 viewBox="0 0 88 22" style="enable-background:new 0 0 88 22;" xml:space="preserve">
<style type="text/css">
	.st0{fill-rule:evenodd;clip-rule:evenodd;fill:#3399CC;}
	.st1{fill-rule:evenodd;clip-rule:evenodd;fill:#FFFFFF;}
</style>
<g>
	<path class="st0" d="M22.8,9.6c2.1-2.1,0.7-5.3,4-7.5C25,4,25.3,5.2,24.7,7.7c1.9-0.2,4.1-0.9,4.1-3.2c0-1.4-0.6-3.1,0-4
		c-2.3,0.3-6.3,0.8-6.3,3.4c0,1.3,1,2.2,1,3.3c0,0.5-0.5,1.1-1.2,1.4L22.8,9.6L22.8,9.6z"/>
	<polygon class="st1" points="32.3,8.6 32.3,11.3 35.8,11.3 35.8,21.3 39.3,21.3 39.3,11.3 42.8,11.3 42.8,8.6 32.3,8.6 	"/>
	<path class="st1" d="M76.4,8.6l-5.7,12.7h3.4l1.1-2.5h6l1.1,2.5h3.4L79.8,8.6H76.4L76.4,8.6z M76.2,16.2l1.9-4.6l1.9,4.6H76.2
		L76.2,16.2z"/>
	<polygon class="st1" points="23,21.3 26.5,21.3 26.5,17.1 31.6,8.6 27.9,8.6 24.8,13.8 21.6,8.6 17.9,8.6 23,17.1 23,21.3 	"/>
	<polygon class="st1" points="5.7,21.3 2.5,21.3 2.5,8.6 5.4,8.6 9.9,15.9 14.4,8.6 17.3,8.6 17.3,21.3 14.1,21.3 14.1,14.6 
		10.7,19.9 9.1,19.9 5.7,14.6 5.7,21.3 	"/>
	<path class="st1" d="M57,14.9c0-3.6-2.8-6.6-7.1-6.6c-4.3,0-7.1,2.9-7.1,6.6c0,3.6,2.8,6.6,7.1,6.6C54.2,21.5,57,18.6,57,14.9
		L57,14.9z M49.9,18.7c-2.2,0-3.6-1.8-3.6-3.7s1.4-3.7,3.6-3.7c2.2,0,3.6,1.8,3.6,3.7S52.1,18.7,49.9,18.7L49.9,18.7z"/>
	<polygon class="st1" points="61.4,21.3 57.9,21.3 57.9,8.6 60.8,8.6 66.6,15.6 66.6,8.6 70,8.6 70,21.3 67.2,21.3 61.4,14.3 
		61.4,21.3 	"/>
</g>
</svg>
